<?xml version="1.0" standalone="no"?>
<!DOCTYPE svg PUBLIC "-//W3C//DTD SVG 20010904//EN"
 "http://www.w3.org/TR/2001/REC-SVG-20010904/DTD/svg10.dtd">
<svg version="1.0" xmlns="http://www.w3.org/2000/svg"
 width="307.000000pt" height="307.000000pt" viewBox="0 0 307.000000 307.000000"
 preserveAspectRatio="xMidYMid meet">
<metadata>
Created by potrace 1.11, written by Peter Selinger 2001-2013
</metadata>
<g transform="translate(0.000000,307.000000) scale(0.100000,-0.100000)"
fill="#000000" stroke="none">
<path d="M0 2921 c0 -78 4 -111 13 -114 9 -4 9 -6 0 -6 -27 -2 -11 -31 26 -51
22 -10 41 -25 43 -32 3 -7 -15 -41 -40 -75 -24 -35 -42 -68 -40 -74 2 -6 21
15 42 47 22 33 45 63 52 67 8 4 14 17 14 27 0 24 3 24 39 5 16 -8 31 -11 35
-8 20 20 -1 -16 -43 -74 -26 -38 -66 -94 -88 -125 -22 -32 -43 -55 -47 -51 -3
3 -6 -6 -6 -20 0 -15 2 -27 4 -27 2 0 20 25 40 55 20 30 38 55 41 55 6 0 -39
-73 -66 -109 -16 -20 -19 -42 -19 -132 0 -60 4 -109 9 -109 11 0 52 54 77 100
l18 35 8 -54 c5 -30 13 -60 19 -67 13 -16 2 -37 -13 -28 -7 4 -8 2 -4 -4 3 -6
-3 -16 -15 -22 -19 -11 -44 -9 -83 6 -14 5 -16 -13 -16 -166 0 -110 4 -169 10
-165 6 4 7 -1 3 -11 -5 -13 -2 -15 15 -10 25 8 37 -8 22 -31 -11 -17 -11 -17
-6 0 4 12 2 17 -6 14 -8 -2 -13 -20 -13 -43 1 -21 -5 -43 -12 -47 -10 -6 -13
-56 -13 -210 l0 -202 30 -17 c35 -20 39 -38 10 -45 -15 -4 -19 -11 -14 -25 4
-14 2 -18 -5 -14 -17 11 -26 -24 -10 -36 11 -7 11 -11 1 -15 -8 -3 -12 -27
-12 -69 0 -60 2 -64 30 -79 40 -21 86 -19 123 6 l32 21 -28 -26 c-34 -32 -35
-68 -2 -94 13 -11 21 -23 17 -28 -4 -4 8 4 26 19 33 27 72 36 72 17 0 -6 13
-24 30 -41 35 -37 29 -57 -21 -73 -19 -7 -39 -23 -49 -41 -16 -29 -16 -31 5
-46 16 -14 20 -25 17 -58 -4 -38 -6 -40 -25 -29 -14 7 -22 8 -25 0 -2 -7 -14
-7 -38 0 -29 7 -39 6 -53 -6 -10 -9 -21 -13 -24 -9 -4 3 -7 1 -7 -5 0 -22 -20
-12 -26 13 -3 14 -11 25 -16 25 -6 0 -7 -7 -4 -15 3 -8 9 -22 12 -30 7 -18
-17 -20 -34 -3 -9 9 -12 -47 -12 -255 l0 -267 267 0 c146 0 264 3 260 6 -3 3
5 16 19 29 29 26 30 35 7 36 -13 0 -10 3 7 10 14 6 36 20 49 32 l23 22 -7 -25
c-7 -21 -5 -23 6 -13 15 11 155 3 178 -11 33 -21 -4 -47 -109 -75 l-35 -9 31
-1 c17 -1 63 12 103 28 83 35 95 31 19 -4 l-53 -25 358 0 357 0 0 23 c1 12 3
43 5 70 3 28 0 47 -6 47 -6 0 -1 12 10 26 11 15 18 31 15 36 -9 14 15 36 47
43 20 5 44 -1 81 -18 33 -16 64 -23 83 -20 30 4 205 -19 237 -32 11 -4 18 0
23 14 8 26 38 27 62 2 10 -10 31 -21 46 -25 16 -4 47 -24 68 -45 33 -31 50
-40 92 -44 71 -9 106 18 167 128 l22 40 -6 -35 c-10 -54 -71 -139 -113 -156
-32 -14 -41 -14 -82 0 -41 13 -47 13 -63 -1 -10 -9 -18 -24 -18 -35 0 -17 12
-18 186 -18 177 0 186 1 191 20 7 26 23 26 23 0 0 -29 12 -25 38 14 29 43 48
111 67 249 21 152 20 218 -5 250 -11 14 -20 36 -20 50 0 41 -10 56 -57 89
l-45 31 5 51 c3 28 7 59 9 70 2 11 -11 29 -34 49 -33 26 -47 31 -115 35 -43 3
-81 9 -85 15 -5 8 -4 249 1 277 1 3 13 -15 26 -40 14 -25 47 -64 73 -87 36
-32 42 -43 28 -43 -11 0 -38 19 -61 43 l-41 43 4 -90 c3 -52 9 -94 16 -98 6
-4 33 -6 60 -3 55 4 101 -11 130 -43 15 -18 18 -32 13 -84 l-5 -63 54 -51 c44
-41 54 -56 54 -83 0 -17 10 -45 22 -61 20 -27 21 -37 15 -147 -7 -131 -42
-288 -76 -343 -11 -19 -21 -38 -21 -42 0 -5 106 -8 235 -8 l235 0 -2 787 c-2
618 -6 787 -15 791 -8 2 -13 -5 -13 -17 0 -40 -40 -127 -72 -157 -40 -37 -88
-68 -88 -56 0 4 22 29 49 55 47 45 76 101 97 181 6 24 7 24 23 9 15 -15 16 1
19 227 1 133 1 244 -1 246 -2 2 -90 -15 -196 -36 -106 -22 -204 -40 -217 -40
-43 0 -26 27 31 51 53 22 71 39 40 39 -8 0 -15 -6 -16 -12 0 -7 -4 -4 -9 7 -5
11 -9 15 -9 8 -1 -7 -8 -10 -16 -7 -8 4 -15 1 -15 -6 0 -6 -4 -9 -9 -5 -5 3
-12 -3 -14 -12 -3 -10 -5 -4 -6 14 -1 21 -9 38 -27 52 -21 16 -23 23 -15 39 6
11 23 22 38 25 16 2 71 14 123 26 152 34 292 52 307 39 11 -9 13 48 11 323
l-3 333 -43 33 c-29 22 -55 33 -77 33 -19 0 -37 5 -40 10 -4 7 -500 10 -1456
10 l-1449 0 0 -109z m65 -131 c-3 -5 -12 -7 -20 -3 -21 7 -19 13 6 13 11 0 18
-4 14 -10z m1470 -77 c-11 -3 -24 -9 -29 -14 -6 -5 -18 -9 -28 -9 -10 0 -25
-11 -33 -24 -15 -22 -21 -24 -78 -19 -34 3 -71 10 -81 16 -16 8 -8 13 51 28
39 9 83 19 99 22 40 6 124 6 99 0z m210 -53 c-3 -53 -44 -114 -102 -151 -56
-35 -61 -35 -73 -6 -15 37 -46 78 -74 96 l-26 17 98 28 c53 15 104 33 112 41
15 13 50 24 61 19 3 -2 5 -22 4 -44z m-949 -3 c17 -16 -43 -5 -66 13 l-25 19
42 -12 c23 -7 45 -16 49 -20z m-592 14 c3 -5 -1 -11 -9 -14 -9 -4 -12 -1 -8 9
6 16 10 17 17 5z m576 -50 c0 -4 -11 -6 -25 -3 -14 2 -25 6 -25 8 0 2 11 4 25
4 14 0 25 -4 25 -9z m-262 -114 c16 -13 15 -20 -6 -45 l-19 -21 -24 27 c-54
59 -54 61 -7 55 24 -3 49 -10 56 -16z m399 -16 c-14 -32 -64 -77 -74 -67 -5 5
74 96 84 96 1 0 -4 -13 -10 -29z m1645 -71 c-18 -17 -40 -30 -49 -30 -10 0 2
13 27 29 57 38 63 38 22 1z m-101 -56 c-18 -8 -47 -17 -65 -20 -23 -3 -18 1
19 15 58 23 96 26 46 5z m160 -58 c-14 -16 -71 -39 -71 -28 0 8 73 50 79 45 2
-1 -2 -9 -8 -17z m139 5 c0 -6 -5 -13 -10 -16 -6 -4 -8 -10 -5 -15 3 -5 -4
-12 -17 -15 -85 -19 -121 -25 -126 -21 -2 3 -18 -2 -33 -10 -22 -11 -34 -12
-49 -4 -26 14 -16 33 12 24 11 -3 37 1 57 9 38 15 151 54 164 56 4 0 7 -3 7
-8z m-2136 -11 c-11 -11 -126 -52 -131 -46 -4 4 116 55 132 56 5 0 5 -4 -1
-10z m-44 -50 c-27 -21 -42 -24 -54 -13 -4 4 10 13 31 19 52 16 51 16 23 -6z
m1815 -6 c17 -4 11 -14 -48 -77 -37 -40 -70 -82 -73 -94 -9 -34 -44 -30 -45 5
0 27 0 27 -11 4 -17 -35 -43 -24 -41 17 2 54 32 86 83 88 34 2 49 9 69 33 27
31 33 33 66 24z m19 -60 c9 -3 16 -16 16 -29 0 -36 21 -87 56 -138 19 -26 34
-54 34 -62 0 -8 7 -15 15 -15 8 0 15 -5 15 -11 0 -6 9 -8 20 -4 26 8 26 -12 1
-42 -12 -15 -30 -23 -49 -23 -24 0 -33 7 -46 35 -9 19 -23 38 -31 42 -17 10
-45 85 -45 120 0 20 -3 22 -19 13 -42 -22 -59 2 -36 47 8 15 15 33 15 39 0 11
20 34 31 34 4 0 14 -3 23 -6z m139 -11 c22 -25 43 -111 29 -125 -7 -7 -15 8
-26 46 -9 32 -23 59 -31 63 -19 7 -20 33 -2 33 8 0 21 -8 30 -17z m-2103 -31
c0 -17 -12 -41 -31 -62 -17 -19 -26 -27 -20 -18 10 14 9 16 -9 11 -11 -3 -23
-9 -26 -14 -7 -12 -24 -11 -24 1 0 13 89 110 101 110 5 0 9 -13 9 -28z m2088
-44 c18 -68 -1 -40 -23 32 -5 17 -4 22 3 15 6 -5 15 -27 20 -47z m-537 -152
c-6 -7 -8 -16 -4 -19 3 -4 -1 -7 -10 -7 -20 0 -21 4 -5 29 7 11 16 17 20 14 5
-2 4 -10 -1 -17z m603 -70 c-16 -26 -34 -34 -34 -16 0 5 9 14 20 20 11 6 20
18 21 28 0 9 3 12 5 5 3 -6 -2 -23 -12 -37z m148 -2 c55 -3 105 -7 111 -11 16
-10 -16 -23 -60 -23 -44 0 -65 -16 -42 -31 8 -5 37 -8 66 -7 46 3 51 1 37 -12
-10 -11 -44 -16 -123 -18 -104 -4 -109 -3 -125 19 -9 13 -16 19 -16 14 0 -6
-4 -4 -9 4 -11 16 35 85 50 75 5 -3 55 -7 111 -10z m-222 -233 c5 -11 10 -31
10 -46 0 -25 0 -25 -26 -9 -14 9 -32 30 -40 45 -14 29 -14 29 15 29 20 0 34
-7 41 -19z m-1941 -66 c18 -25 40 -45 49 -45 33 0 97 -28 100 -44 2 -9 8 -16
14 -16 6 0 7 15 3 40 l-7 41 37 -26 c21 -14 48 -25 60 -25 12 0 30 -12 42 -29
30 -40 86 -48 130 -18 18 12 33 25 33 29 0 4 29 -6 65 -23 35 -16 73 -29 82
-29 12 -1 7 -8 -17 -23 -97 -61 -120 -89 -80 -102 22 -7 60 11 123 59 l46 35
45 -15 c36 -13 45 -20 48 -42 3 -24 7 -27 35 -24 23 2 52 -8 100 -34 67 -38
67 -38 37 -46 -16 -5 -45 -6 -64 -4 -66 10 -210 -14 -272 -45 -32 -16 -58 -36
-58 -44 0 -18 0 -18 56 -4 42 11 46 10 61 -11 9 -13 17 -35 18 -48 1 -32 39
-62 80 -62 50 0 92 55 100 134 4 35 4 36 20 36 11 0 15 -12 15 -44 0 -39 -5
-48 -45 -85 -37 -34 -42 -43 -28 -48 29 -11 86 28 110 76 12 24 34 55 50 68
15 14 21 21 13 17 -8 -3 -3 5 12 20 23 22 31 25 48 16 11 -6 20 -12 20 -13 0
-1 -7 -20 -15 -42 -8 -22 -14 -67 -15 -101 0 -33 -3 -64 -7 -67 -6 -7 -22 16
-42 60 -15 32 -24 34 -59 13 -27 -17 -32 -25 -30 -52 2 -25 -1 -33 -14 -32
-14 1 -15 -3 -5 -30 6 -17 12 -25 14 -19 3 7 11 9 19 6 7 -3 11 -10 8 -15 -8
-12 16 -29 28 -21 5 2 6 13 3 24 -11 33 4 21 26 -22 15 -31 24 -38 32 -30 6 6
15 11 19 11 14 0 9 -20 -15 -54 -19 -29 -25 -32 -46 -24 -13 5 -52 9 -86 10
-61 2 -61 2 -108 -46 -27 -26 -55 -59 -64 -72 l-15 -24 -41 30 c-47 34 -63 37
-89 13 -27 -24 -22 -34 33 -76 63 -48 65 -77 4 -91 -22 -5 -55 -15 -74 -24
-19 -8 -53 -15 -75 -15 -50 0 -168 43 -162 60 7 18 -17 43 -47 49 -18 3 -26 1
-22 -6 12 -19 -6 -10 -60 30 -87 64 -175 196 -174 260 0 22 2 21 14 -10 10
-26 14 -29 14 -14 1 12 8 27 16 34 13 11 15 8 15 -18 0 -47 20 -50 21 -3 0 23
1 57 2 75 0 19 -6 43 -14 53 -8 11 -3 9 12 -4 34 -30 41 -29 24 5 -35 67 -45
98 -45 134 0 40 8 45 41 28 12 -7 19 -21 19 -40 0 -16 5 -32 11 -35 6 -4 8
-14 5 -22 -10 -25 21 -83 43 -83 23 0 27 12 35 107 l6 62 -45 26 c-24 15 -57
28 -72 30 -15 2 -54 15 -85 29 -32 14 -58 22 -58 17 0 -5 10 -31 22 -58 12
-26 20 -52 20 -56 -1 -4 5 -10 13 -13 9 -4 15 -19 15 -36 0 -16 5 -39 11 -51
7 -12 8 -19 4 -15 -4 4 -16 3 -26 -3 -17 -8 -19 -6 -19 19 0 16 -9 50 -20 75
-11 25 -22 58 -24 74 -2 15 -9 41 -15 56 -17 43 -14 67 8 67 38 0 39 73 1 83
-15 4 -20 14 -20 36 0 34 2 36 32 20 35 -19 45 5 16 39 -19 23 -23 37 -20 70
2 23 5 42 6 42 2 0 17 -20 35 -45z m951 -145 c0 -11 -2 -20 -4 -20 -2 0 -6 9
-9 20 -3 11 -1 20 4 20 5 0 9 -9 9 -20z m502 -58 c-19 -6 -44 6 -37 18 4 7 14
6 28 -2 14 -7 17 -13 9 -16z m-1492 -2 c0 -11 -2 -20 -4 -20 -2 0 -6 9 -9 20
-3 11 -1 20 4 20 5 0 9 -9 9 -20z m870 -15 c-9 -11 -16 -13 -23 -6 -7 7 -6 15
3 26 9 11 16 13 23 6 7 -7 6 -15 -3 -26z m1444 -44 c-17 -43 -41 -58 -28 -18
9 27 35 69 41 64 2 -3 -4 -23 -13 -46z m-27 -113 c-3 -7 -5 -2 -5 12 0 14 2
19 5 13 2 -7 2 -19 0 -25z m-337 -96 c0 -5 30 -27 66 -51 37 -23 64 -44 61
-48 -13 -12 -61 10 -103 49 -43 40 -54 58 -34 58 6 0 10 -4 10 -8z m-546 -18
c3 -8 2 -12 -4 -9 -6 3 -10 10 -10 16 0 14 7 11 14 -7z m-410 -100 c3 -8 2
-12 -4 -9 -6 3 -10 10 -10 16 0 14 7 11 14 -7z m-14 -30 c0 -16 -16 -19 -25
-4 -8 13 4 32 16 25 5 -4 9 -13 9 -21z m-880 6 c0 -5 -4 -10 -10 -10 -5 0 -10
5 -10 10 0 6 5 10 10 10 6 0 10 -4 10 -10z m-453 -22 c-3 -8 -6 -5 -6 6 -1 11
2 17 5 13 3 -3 4 -12 1 -19z m1790 -44 c-3 -3 -12 -4 -19 -1 -8 3 -5 6 6 6 11
1 17 -2 13 -5z m76 -1 c-7 -2 -21 -2 -30 0 -10 3 -4 5 12 5 17 0 24 -2 18 -5z
m-363 -36 c0 -18 -2 -19 -10 -7 -13 20 -13 43 0 35 6 -3 10 -16 10 -28z m525
3 l30 -8 -30 0 c-16 0 -41 4 -55 8 l-25 8 25 0 c14 0 39 -4 55 -8z m-404 -37
c-10 -17 -10 -16 -11 3 0 23 13 41 18 25 2 -6 -1 -18 -7 -28z m-312 -36 c-2
-1 -13 -9 -23 -17 -11 -8 -17 -10 -13 -3 4 6 1 14 -5 16 -7 3 0 6 16 6 16 1
27 0 25 -2z m211 -1 c0 -2 -7 -9 -15 -16 -13 -11 -14 -10 -9 4 5 14 24 23 24
12z m-309 -39 c-1 -4 3 -13 9 -20 6 -6 20 -25 31 -40 14 -19 27 -26 38 -22 13
5 14 4 4 -6 -10 -10 -19 -7 -46 19 -25 24 -39 30 -60 26 l-28 -5 16 31 c14 27
38 39 36 17z m-187 -40 c15 -11 17 -17 7 -35 -10 -18 -15 -20 -31 -12 -20 10
-27 40 -13 53 9 10 17 9 37 -6z m1523 -19 c-3 -7 -5 -2 -5 12 0 14 2 19 5 13
2 -7 2 -19 0 -25z m-707 -6 c0 -10 -3 -22 -7 -26 -4 -4 -6 -22 -5 -40 3 -34
-27 -75 -35 -49 -6 18 -43 63 -52 63 -4 0 -17 -9 -29 -20 -21 -20 -29 -16 -14
6 14 21 107 84 125 84 10 0 17 -7 17 -18z m-775 -23 c10 -15 -1 -23 -20 -15
-9 3 -13 10 -10 16 8 13 22 13 30 -1z m71 -43 c-11 -21 -24 -32 -32 -29 -20 7
-17 26 7 57 16 20 25 24 32 17 8 -8 6 -21 -7 -45z m1411 17 c-3 -10 -5 -4 -5
12 0 17 2 24 5 18 2 -7 2 -21 0 -30z m0 -85 c-2 -13 -4 -3 -4 22 0 25 2 35 4
23 2 -13 2 -33 0 -45z m-1933 14 c8 -13 -123 -84 -141 -78 -14 6 -13 9 3 27
38 42 124 74 138 51z m1342 -89 c-14 -21 -32 -57 -42 -81 -16 -41 -17 -42 -35
-26 -26 23 -24 61 6 100 18 24 31 32 50 29 14 -1 28 2 31 6 3 5 7 9 10 9 2 0
-7 -17 -20 -37z m591 -25 c-2 -13 -4 -5 -4 17 -1 22 1 32 4 23 2 -10 2 -28 0
-40z m-2090 26 c8 -21 -13 -42 -28 -27 -13 13 -5 43 11 43 6 0 13 -7 17 -16z
m1022 -3 c-15 -23 -49 -44 -57 -35 -4 4 -1 9 5 11 7 3 23 13 35 23 29 24 31
24 17 1z m167 -9 c-18 -16 -18 -16 -6 6 6 13 14 21 18 18 3 -4 -2 -14 -12 -24z
m-51 -52 c-30 -31 -48 -39 -39 -17 4 11 51 46 63 47 3 0 -8 -13 -24 -30z
m-408 -27 c10 -21 29 -43 41 -49 24 -12 24 -12 -12 -24 -34 -11 -37 -10 -76
29 -22 21 -40 44 -40 49 0 9 40 29 62 31 3 1 15 -16 25 -36z m-197 -10 c-8 -3
-24 -10 -35 -15 -20 -9 -20 -9 -1 6 11 9 27 16 35 15 14 0 14 -1 1 -6z m1557
-231 c-1 -42 -3 -7 -3 78 0 85 2 120 3 78 2 -43 2 -113 0 -156z m-1423 193
c14 -13 26 -31 26 -39 0 -9 -11 -4 -31 15 -40 37 -48 31 -19 -16 16 -26 19
-40 12 -47 -12 -12 -25 -2 -54 41 -16 22 -16 25 0 47 22 30 33 30 66 -1z m261
-6 c-33 -10 -64 -18 -70 -18 -15 1 97 38 115 37 8 0 -12 -8 -45 -19z m-455
-12 c0 -2 -17 -19 -37 -38 l-38 -34 34 38 c33 34 41 42 41 34z m230 -70 c0 -2
-14 -16 -32 -33 -18 -16 -26 -20 -18 -9 19 27 50 53 50 42z m-1120 -51 c0 -2
-8 -10 -17 -17 -16 -13 -17 -12 -4 4 13 16 21 21 21 13z m1060 -20 c0 -2 -8
-10 -17 -17 -16 -13 -17 -12 -4 4 13 16 21 21 21 13z"/>
<path d="M684 1445 c30 -70 92 -145 120 -145 3 0 6 13 6 28 0 21 -16 43 -63
90 -34 34 -66 62 -70 62 -4 0 -1 -16 7 -35z"/>
<path d="M720 1251 c0 -13 33 -39 63 -50 33 -13 34 -9 3 22 -24 24 -66 42 -66
28z"/>
<path d="M1173 1233 c-13 -9 -23 -19 -23 -24 0 -13 33 -10 53 5 27 21 -1 39
-30 19z"/>
<path d="M1255 1030 c3 -5 11 -10 16 -10 6 0 7 5 4 10 -3 6 -11 10 -16 10 -6
0 -7 -4 -4 -10z"/>
<path d="M1441 945 c-7 -16 -18 -42 -26 -57 -7 -16 -9 -28 -4 -28 13 0 51 79
46 98 -3 12 -7 9 -16 -13z"/>
<path d="M1300 916 c0 -19 5 -38 10 -41 6 -4 10 10 10 34 0 23 -4 41 -10 41
-5 0 -10 -15 -10 -34z"/>
<path d="M690 930 c0 -26 12 -60 21 -60 14 0 10 34 -6 56 -11 14 -14 15 -15 4z"/>
<path d="M1366 924 c-3 -9 -6 -25 -6 -37 0 -27 15 -11 24 26 7 29 -8 38 -18
11z"/>
<path d="M1250 911 c-13 -25 -13 -34 0 -26 16 10 32 45 21 45 -6 0 -15 -9 -21
-19z"/>
<path d="M747 903 c-11 -10 -8 -43 3 -43 6 0 10 11 10 25 0 26 -2 29 -13 18z"/>
<path d="M863 890 c-5 -19 -6 -20 -19 -3 -13 17 -13 17 -14 -3 0 -27 25 -51
33 -32 4 9 6 7 6 -4 1 -23 19 -32 36 -18 19 16 19 30 0 30 -16 0 -38 34 -28
44 3 3 3 6 -1 6 -4 0 -10 -9 -13 -20z"/>
<path d="M3011 3028 c2 -2 16 -14 32 -27 l27 -24 0 26 c0 24 -4 27 -32 27 -17
0 -29 -1 -27 -2z"/>
<path d="M0 2754 c0 -3 9 -13 21 -23 l21 -17 -22 -37 c-12 -20 -20 -42 -18
-49 4 -12 58 72 58 91 0 6 -13 17 -30 26 -17 9 -30 13 -30 9z"/>
<path d="M3017 2224 c-26 -7 -51 -12 -55 -13 -4 0 -9 -10 -10 -22 -4 -21 -1
-22 49 -16 59 7 72 16 67 44 -3 18 -6 19 -51 7z"/>
<path d="M2750 2110 c0 -5 5 -10 10 -10 6 0 10 5 10 10 0 6 -4 10 -10 10 -5 0
-10 -4 -10 -10z"/>
<path d="M2 879 c5 -16 58 -25 58 -10 0 6 -6 11 -14 11 -8 0 -22 3 -32 7 -12
4 -15 2 -12 -8z"/>
<path d="M1795 70 l-100 -28 78 -1 c66 -1 80 2 99 21 l21 21 43 -22 c23 -13
52 -21 65 -19 23 3 22 4 -12 25 -54 34 -84 34 -194 3z"/>
</g>
</svg>
